<svg width="23" height="23" viewBox="0 0 23 23" fill="none" xmlns="http://www.w3.org/2000/svg">
<g clip-path="url(#clip0_407_74)">
<path d="M11.5 22.9998C12.2625 22.9998 12.9938 22.6969 13.5329 22.1577C14.0721 21.6186 14.375 20.8873 14.375 20.1248H8.625C8.625 20.8873 8.9279 21.6186 9.46707 22.1577C10.0062 22.6969 10.7375 22.9998 11.5 22.9998ZM11.5 2.75692L10.3543 2.98836C9.05451 3.25264 7.88604 3.95818 7.04691 4.98541C6.20778 6.01264 5.7496 7.29839 5.75 8.62479C5.75 9.52754 5.55737 11.783 5.09019 14.0039C4.86019 15.1065 4.54969 16.255 4.13713 17.2498H18.8629C18.4503 16.255 18.1412 15.1079 17.9098 14.0039C17.4426 11.783 17.25 9.52754 17.25 8.62479C17.2501 7.29864 16.7917 6.01322 15.9526 4.98629C15.1135 3.95935 13.9453 3.25403 12.6457 2.98979L11.5 2.75692ZM20.4412 17.2498C20.7618 17.8924 21.1327 18.4012 21.5625 18.6873H1.4375C1.86731 18.4012 2.23819 17.8924 2.55875 17.2498C3.8525 14.6623 4.3125 9.88979 4.3125 8.62479C4.3125 5.14604 6.785 2.24229 10.0697 1.57961C10.0496 1.37973 10.0717 1.17786 10.1344 0.987029C10.1972 0.796197 10.2992 0.620634 10.434 0.471664C10.5687 0.322693 10.7332 0.203623 10.9169 0.122131C11.1005 0.0406388 11.2991 -0.00146484 11.5 -0.00146484C11.7009 -0.00146484 11.8995 0.0406388 12.0831 0.122131C12.2668 0.203623 12.4313 0.322693 12.566 0.471664C12.7008 0.620634 12.8028 0.796197 12.8656 0.987029C12.9283 1.17786 12.9504 1.37973 12.9303 1.57961C14.5553 1.90959 16.0163 2.79129 17.0655 4.0753C18.1148 5.3593 18.6878 6.9666 18.6875 8.62479C18.6875 9.88979 19.1475 14.6623 20.4412 17.2498Z" fill="black"/>
</g>
<defs>
<clipPath id="clip0_407_74">
<rect width="23" height="23" fill="white"/>
</clipPath>
</defs>
</svg>
