<svg width="54" height="54" viewBox="0 0 54 54" fill="none" xmlns="http://www.w3.org/2000/svg">
<path d="M3.375 9.54462C6.36188 8.29587 10.6448 6.94924 14.8095 6.53074C19.2983 6.07849 23.1052 6.74337 25.3125 9.06874V41.9615C22.1569 40.1727 18.1575 39.9264 14.4686 40.2976C10.4861 40.7026 6.46987 41.8535 3.375 43.0347V9.54462ZM28.6875 9.06874C30.8948 6.74337 34.7018 6.07849 39.1905 6.53074C43.3553 6.94924 47.6381 8.29587 50.625 9.54462V43.0347C47.5267 41.8535 43.5139 40.6992 39.5314 40.301C35.8391 39.9264 31.8431 40.1694 28.6875 41.9615V9.06874ZM27 6.01774C23.6756 3.15912 18.8561 2.73387 14.4686 3.17262C9.35888 3.68899 4.20188 5.44062 0.988875 6.90199C0.694065 7.03607 0.444067 7.25216 0.268721 7.52445C0.0933751 7.79675 8.96785e-05 8.11375 0 8.43762L0 45.5626C7.81717e-05 45.845 0.0710004 46.1228 0.20627 46.3706C0.34154 46.6185 0.536833 46.8284 0.774261 46.9812C1.01169 47.134 1.28366 47.2248 1.56527 47.2452C1.84687 47.2657 2.12911 47.2151 2.38613 47.0982C5.36287 45.7482 10.1588 44.1249 14.8061 43.6557C19.5615 43.1765 23.5474 43.9494 25.6838 46.6156C25.8419 46.8127 26.0422 46.9718 26.2701 47.0811C26.4979 47.1904 26.7473 47.2471 27 47.2471C27.2527 47.2471 27.5021 47.1904 27.7299 47.0811C27.9578 46.9718 28.1581 46.8127 28.3163 46.6156C30.4526 43.9494 34.4385 43.1765 39.1905 43.6557C43.8413 44.1249 48.6405 45.7482 51.6139 47.0982C51.8709 47.2151 52.1531 47.2657 52.4347 47.2452C52.7163 47.2248 52.9883 47.134 53.2257 46.9812C53.4632 46.8284 53.6585 46.6185 53.7937 46.3706C53.929 46.1228 53.9999 45.845 54 45.5626V8.43762C53.9999 8.11375 53.9066 7.79675 53.7313 7.52445C53.5559 7.25216 53.3059 7.03607 53.0111 6.90199C49.7981 5.44062 44.6411 3.68899 39.5314 3.17262C35.1439 2.73049 30.3244 3.15912 27 6.01774Z" fill="white"/>
</svg>
