<svg width="21" height="21" viewBox="0 0 21 21" fill="none" xmlns="http://www.w3.org/2000/svg">
<path d="M18.375 5.90625V18.375C18.375 19.0712 18.0984 19.7389 17.6062 20.2312C17.1139 20.7234 16.4462 21 15.75 21H5.25C4.55381 21 3.88613 20.7234 3.39384 20.2312C2.90156 19.7389 2.625 19.0712 2.625 18.375V2.625C2.625 1.92881 2.90156 1.26113 3.39384 0.768845C3.88613 0.276562 4.55381 0 5.25 0L12.4688 0L18.375 5.90625ZM14.4375 5.90625C13.9154 5.90625 13.4146 5.69883 13.0454 5.32962C12.6762 4.9604 12.4688 4.45964 12.4688 3.9375V1.3125H5.25C4.9019 1.3125 4.56806 1.45078 4.32192 1.69692C4.07578 1.94306 3.9375 2.2769 3.9375 2.625V18.375C3.9375 18.7231 4.07578 19.0569 4.32192 19.3031C4.56806 19.5492 4.9019 19.6875 5.25 19.6875H15.75C16.0981 19.6875 16.4319 19.5492 16.6781 19.3031C16.9242 19.0569 17.0625 18.7231 17.0625 18.375V5.90625H14.4375Z" fill="black"/>
<path d="M5.25 8.53125C5.25 8.3572 5.31914 8.19028 5.44221 8.06721C5.56528 7.94414 5.7322 7.875 5.90625 7.875H15.0938C15.2678 7.875 15.4347 7.94414 15.5578 8.06721C15.6809 8.19028 15.75 8.3572 15.75 8.53125V17.7188C15.75 17.8928 15.6809 18.0597 15.5578 18.1828C15.4347 18.3059 15.2678 18.375 15.0938 18.375H5.90625C5.7322 18.375 5.56528 18.3059 5.44221 18.1828C5.31914 18.0597 5.25 17.8928 5.25 17.7188V8.53125ZM5.25 4.59375C5.25 4.4197 5.31914 4.25278 5.44221 4.12971C5.56528 4.00664 5.7322 3.9375 5.90625 3.9375H9.1875C9.36155 3.9375 9.52847 4.00664 9.65154 4.12971C9.77461 4.25278 9.84375 4.4197 9.84375 4.59375C9.84375 4.7678 9.77461 4.93472 9.65154 5.05779C9.52847 5.18086 9.36155 5.25 9.1875 5.25H5.90625C5.7322 5.25 5.56528 5.18086 5.44221 5.05779C5.31914 4.93472 5.25 4.7678 5.25 4.59375Z" fill="black"/>
</svg>
