<svg width="82" height="88" viewBox="0 0 82 88" fill="none" xmlns="http://www.w3.org/2000/svg">
<path d="M0.375 3.375C0.375 2.5462 0.70424 1.75134 1.29029 1.16529C1.87634 0.57924 2.6712 0.25 3.5 0.25H78.5C79.3288 0.25 80.1237 0.57924 80.7097 1.16529C81.2958 1.75134 81.625 2.5462 81.625 3.375V15.875C81.6249 16.6457 81.34 17.3891 80.825 17.9625L53.5 48.325V78.375C53.4995 79.0306 53.2928 79.6694 52.9092 80.2011C52.5256 80.7328 51.9845 81.1303 51.3625 81.3375L32.6125 87.5875C32.143 87.7439 31.643 87.7865 31.1538 87.7119C30.6645 87.6373 30.2 87.4475 29.7984 87.1582C29.3969 86.869 29.0698 86.4885 28.844 86.048C28.6183 85.6076 28.5004 85.1199 28.5 84.625V48.325L1.175 17.9625C0.660051 17.3891 0.375138 16.6457 0.375 15.875V3.375ZM6.625 6.5V14.675L33.95 45.0375C34.465 45.6109 34.7499 46.3543 34.75 47.125V80.2875L47.25 76.125V47.125C47.2501 46.3543 47.5351 45.6109 48.05 45.0375L75.375 14.675V6.5H6.625Z" fill="#792E29"/>
</svg>
