<svg width="46" height="46" viewBox="0 0 46 46" fill="none" xmlns="http://www.w3.org/2000/svg">
<g clip-path="url(#clip0_144_448)">
<path d="M5.75 17.2501C5.74991 14.4015 6.45523 11.5973 7.80298 9.08783C9.15073 6.57833 11.099 4.44164 13.4737 2.86855C15.8485 1.29546 18.5758 0.334936 21.4122 0.0727448C24.2487 -0.189447 27.1059 0.254856 29.7287 1.36598C32.3516 2.4771 34.6585 4.22046 36.4434 6.44039C38.2283 8.66032 39.4357 11.2877 39.9578 14.088C40.4799 16.8882 40.3004 19.7742 39.4353 22.4882C38.5702 25.2022 37.0465 27.6597 35.0003 29.6413C34.4166 30.2048 33.9681 30.7913 33.6979 31.4209L31.5071 36.5068C31.396 36.7646 31.2118 36.9841 30.9773 37.1384C30.7428 37.2927 30.4682 37.375 30.1875 37.3751C30.5688 37.3751 30.9344 37.5265 31.204 37.7961C31.4736 38.0657 31.625 38.4313 31.625 38.8126C31.625 39.1938 31.4736 39.5594 31.204 39.829C30.9344 40.0986 30.5688 40.2501 30.1875 40.2501C30.5688 40.2501 30.9344 40.4015 31.204 40.6711C31.4736 40.9407 31.625 41.3063 31.625 41.6876C31.625 42.0688 31.4736 42.4344 31.204 42.704C30.9344 42.9736 30.5688 43.1251 30.1875 43.1251L29.5435 44.4102C29.3049 44.8877 28.9381 45.2893 28.4841 45.5701C28.0302 45.8509 27.507 45.9998 26.9733 46.0001H19.0268C18.493 45.9998 17.9698 45.8509 17.5159 45.5701C17.0619 45.2893 16.6951 44.8877 16.4565 44.4102L15.8125 43.1251C15.4313 43.1251 15.0656 42.9736 14.796 42.704C14.5265 42.4344 14.375 42.0688 14.375 41.6876C14.375 41.3063 14.5265 40.9407 14.796 40.6711C15.0656 40.4015 15.4313 40.2501 15.8125 40.2501C15.4313 40.2501 15.0656 40.0986 14.796 39.829C14.5265 39.5594 14.375 39.1938 14.375 38.8126C14.375 38.4313 14.5265 38.0657 14.796 37.7961C15.0656 37.5265 15.4313 37.3751 15.8125 37.3751C15.5313 37.3755 15.2561 37.2936 15.0211 37.1392C14.786 36.9849 14.6014 36.765 14.49 36.5068L12.3021 31.4181C11.9866 30.7474 11.5443 30.1441 10.9998 29.6413C9.33639 28.0351 8.01414 26.1098 7.1121 23.9807C6.21007 21.8516 5.7468 19.5624 5.75 17.2501ZM23 2.87506C20.137 2.87457 17.339 3.72902 14.9647 5.3289C12.5904 6.92878 10.7479 9.20121 9.67339 11.8549C8.59887 14.5087 8.34124 17.4228 8.93354 20.2239C9.52584 23.025 10.9411 25.5854 12.9979 27.5771C13.754 28.3073 14.4756 29.1986 14.9414 30.2824L16.7613 34.5001H29.2445L31.0615 30.2824C31.5273 29.1986 32.2489 28.3073 33.005 27.5771C35.062 25.5853 36.4773 23.0246 37.0695 20.2232C37.6617 17.4219 37.4038 14.5075 36.3289 11.8536C35.2541 9.19976 33.4111 6.92736 31.0364 5.3277C28.6616 3.72804 25.8633 2.874 23 2.87506Z" fill="white"/>
</g>
<defs>
<clipPath id="clip0_144_448">
<rect width="46" height="46" fill="white"/>
</clipPath>
</defs>
</svg>
