<svg width="53" height="53" viewBox="0 0 53 53" fill="none" xmlns="http://www.w3.org/2000/svg">
<g clip-path="url(#clip0_144_450)">
<path d="M27.1989 6.78068C26.98 6.67878 26.7415 6.62598 26.5 6.62598C26.2585 6.62598 26.02 6.67878 25.8011 6.78068L0.957318 18.3744C0.664766 18.511 0.418501 18.7301 0.248811 19.0047C0.0791204 19.2794 -0.00659629 19.5976 0.00220229 19.9204C0.0110009 20.2431 0.113931 20.5562 0.298334 20.8212C0.482737 21.0862 0.740573 21.2916 1.04013 21.412L25.8839 31.3495C26.2793 31.508 26.7207 31.508 27.1161 31.3495L46.375 23.6512V43.0625C45.4965 43.0625 44.6539 43.4115 44.0327 44.0327C43.4115 44.6539 43.0625 45.4965 43.0625 46.375V53H53V46.375C53 45.4965 52.651 44.6539 52.0298 44.0327C51.4086 43.4115 50.566 43.0625 49.6875 43.0625V22.3229L51.9599 21.412C52.2594 21.2916 52.5173 21.0862 52.7017 20.8212C52.8861 20.5562 52.989 20.2431 52.9978 19.9204C53.0066 19.5976 52.9209 19.2794 52.7512 19.0047C52.5815 18.7301 52.3353 18.511 52.0427 18.3744L27.1989 6.78068Z" fill="white"/>
<path d="M13.833 29.9185C13.6197 29.8381 13.3921 29.8027 13.1645 29.8143C12.9369 29.8259 12.7142 29.8844 12.5102 29.9861C12.3062 30.0878 12.1255 30.2304 11.9792 30.4052C11.8329 30.5799 11.7242 30.783 11.66 31.0016L10.0037 36.6329C9.88771 37.0282 9.92321 37.4526 10.1033 37.8232C10.2834 38.1937 10.5951 38.4839 10.9776 38.637L25.8838 44.5995C26.2793 44.7579 26.7206 44.7579 27.1161 44.5995L42.0223 38.637C42.4049 38.4839 42.7166 38.1937 42.8967 37.8232C43.0767 37.4526 43.1122 37.0282 42.9962 36.6329L41.34 31.0016C41.2757 30.783 41.1671 30.5799 41.0208 30.4052C40.8745 30.2304 40.6937 30.0878 40.4897 29.9861C40.2858 29.8844 40.063 29.8259 39.8354 29.8143C39.6078 29.8027 39.3802 29.8381 39.167 29.9185L26.5 34.6686L13.833 29.9185Z" fill="white"/>
</g>
<defs>
<clipPath id="clip0_144_450">
<rect width="53" height="53" fill="white"/>
</clipPath>
</defs>
</svg>
