<svg width="15" height="15" viewBox="0 0 15 15" fill="none" xmlns="http://www.w3.org/2000/svg">
<g clip-path="url(#clip0_407_218)">
<path d="M14.5333 1.81863C14.6209 1.9065 14.6701 2.0255 14.6701 2.14957C14.6701 2.27363 14.6209 2.39264 14.5333 2.48051L13.5555 3.45926L11.6805 1.58426L12.6583 0.605505C12.7463 0.517628 12.8655 0.468262 12.9898 0.468262C13.114 0.468262 13.2333 0.517628 13.3212 0.605505L14.5333 1.81769V1.81863ZM12.8927 4.12113L11.0177 2.24613L4.63053 8.63426C4.57894 8.68584 4.54009 8.74876 4.5171 8.81801L3.76241 11.0811C3.74872 11.1224 3.74678 11.1666 3.7568 11.2089C3.76681 11.2512 3.7884 11.2899 3.81914 11.3207C3.84987 11.3514 3.88855 11.373 3.93085 11.383C3.97315 11.393 4.0174 11.3911 4.05866 11.3774L6.32178 10.6227C6.39094 10.6 6.45385 10.5615 6.50553 10.5102L12.8927 4.12113Z" fill="black"/>
<path fill-rule="evenodd" clip-rule="evenodd" d="M0.9375 12.6562C0.9375 13.0292 1.08566 13.3869 1.34938 13.6506C1.6131 13.9143 1.97079 14.0625 2.34375 14.0625H12.6562C13.0292 14.0625 13.3869 13.9143 13.6506 13.6506C13.9143 13.3869 14.0625 13.0292 14.0625 12.6562V7.03125C14.0625 6.90693 14.0131 6.7877 13.9252 6.69979C13.8373 6.61189 13.7181 6.5625 13.5938 6.5625C13.4694 6.5625 13.3502 6.61189 13.2623 6.69979C13.1744 6.7877 13.125 6.90693 13.125 7.03125V12.6562C13.125 12.7806 13.0756 12.8998 12.9877 12.9877C12.8998 13.0756 12.7806 13.125 12.6562 13.125H2.34375C2.21943 13.125 2.1002 13.0756 2.01229 12.9877C1.92439 12.8998 1.875 12.7806 1.875 12.6562V2.34375C1.875 2.21943 1.92439 2.1002 2.01229 2.01229C2.1002 1.92439 2.21943 1.875 2.34375 1.875H8.4375C8.56182 1.875 8.68105 1.82561 8.76896 1.73771C8.85686 1.6498 8.90625 1.53057 8.90625 1.40625C8.90625 1.28193 8.85686 1.1627 8.76896 1.07479C8.68105 0.986886 8.56182 0.9375 8.4375 0.9375H2.34375C1.97079 0.9375 1.6131 1.08566 1.34938 1.34938C1.08566 1.6131 0.9375 1.97079 0.9375 2.34375V12.6562Z" fill="black"/>
</g>
<defs>
<clipPath id="clip0_407_218">
<rect width="15" height="15" fill="white"/>
</clipPath>
</defs>
</svg>
