<svg width="50" height="50" viewBox="0 0 50 50" fill="none" xmlns="http://www.w3.org/2000/svg">
<path d="M43.75 29.6875C43.75 31.3451 43.0915 32.9348 41.9194 34.1069C40.7473 35.279 39.1576 35.9375 37.5 35.9375C35.8424 35.9375 34.2527 35.279 33.0806 34.1069C31.9085 32.9348 31.25 31.3451 31.25 29.6875C31.25 28.0299 31.9085 26.4402 33.0806 25.2681C34.2527 24.096 35.8424 23.4375 37.5 23.4375C39.1576 23.4375 40.7473 24.096 41.9194 25.2681C43.0915 26.4402 43.75 28.0299 43.75 29.6875ZM25 47.5C25 50 27.5 50 27.5 50H47.5C47.5 50 50 50 50 47.5C50 45 47.5 37.5 37.5 37.5C27.5 37.5 25 45 25 47.5Z" fill="white"/>
<path d="M6.25 6.25C4.5924 6.25 3.00269 6.90848 1.83058 8.08058C0.65848 9.25268 0 10.8424 0 12.5L0 37.5C0 39.1576 0.65848 40.7473 1.83058 41.9194C3.00269 43.0915 4.5924 43.75 6.25 43.75H22.6344C23.0156 42.7313 23.5562 41.6625 24.2781 40.625H6.25C5.4212 40.625 4.62634 40.2958 4.04029 39.7097C3.45424 39.1237 3.125 38.3288 3.125 37.5V12.5C3.125 11.6712 3.45424 10.8763 4.04029 10.2903C4.62634 9.70424 5.4212 9.375 6.25 9.375H43.75C44.5788 9.375 45.3737 9.70424 45.9597 10.2903C46.5458 10.8763 46.875 11.6712 46.875 12.5V36.9063C47.9781 37.625 48.925 38.4563 49.7188 39.3531C49.9062 38.7677 50 38.15 50 37.5V12.5C50 10.8424 49.3415 9.25268 48.1694 8.08058C46.9973 6.90848 45.4076 6.25 43.75 6.25H6.25Z" fill="white"/>
</svg>
