<svg width="28" height="26" viewBox="0 0 28 26" fill="none" xmlns="http://www.w3.org/2000/svg">
<path d="M26.1224 25.4499C26.1224 25.4499 27.8639 25.4499 27.8639 23.3291C27.8639 21.2083 26.1224 14.8458 19.1564 14.8458C12.1905 14.8458 10.449 21.2083 10.449 23.3291C10.449 25.4499 12.1905 25.4499 12.1905 25.4499H26.1224ZM12.2288 23.3291L12.1905 23.3206C12.1922 22.7607 12.4813 21.1362 13.514 19.6728C14.4753 18.3006 16.1645 16.9666 19.1564 16.9666C22.1466 16.9666 23.8358 18.3027 24.7989 19.6728C25.8316 21.1362 26.1189 22.7628 26.1224 23.3206L26.1085 23.3249L26.0841 23.3291H12.2288ZM19.1564 10.6041C20.0802 10.6041 20.9661 10.1573 21.6193 9.36179C22.2725 8.56632 22.6394 7.48744 22.6394 6.36248C22.6394 5.23753 22.2725 4.15864 21.6193 3.36318C20.9661 2.56771 20.0802 2.12083 19.1564 2.12083C18.2327 2.12083 17.3468 2.56771 16.6936 3.36318C16.0404 4.15864 15.6734 5.23753 15.6734 6.36248C15.6734 7.48744 16.0404 8.56632 16.6936 9.36179C17.3468 10.1573 18.2327 10.6041 19.1564 10.6041ZM24.3809 6.36248C24.3809 7.19802 24.2458 8.02537 23.9832 8.7973C23.7207 9.56923 23.3358 10.2706 22.8507 10.8614C22.3656 11.4522 21.7896 11.9209 21.1557 12.2407C20.5219 12.5604 19.8425 12.725 19.1564 12.725C18.4703 12.725 17.791 12.5604 17.1571 12.2407C16.5232 11.9209 15.9473 11.4522 15.4622 10.8614C14.977 10.2706 14.5922 9.56923 14.3296 8.7973C14.0671 8.02537 13.9319 7.19802 13.9319 6.36248C13.9319 4.67505 14.4824 3.05673 15.4622 1.86353C16.4419 0.670331 17.7708 0 19.1564 0C20.542 0 21.8709 0.670331 22.8507 1.86353C23.8305 3.05673 24.3809 4.67505 24.3809 6.36248ZM12.079 15.4396C11.382 15.1743 10.664 14.9988 9.93696 14.9158C9.52836 14.8673 9.118 14.8439 8.70747 14.8458C1.74149 14.8458 0 21.2083 0 23.3291C0 24.743 0.580498 25.4499 1.74149 25.4499H9.08363C8.82558 24.7878 8.69684 24.0619 8.70747 23.3291C8.70747 21.1871 9.36401 18.9984 10.6057 17.1702C11.0289 16.5467 11.5217 15.9635 12.079 15.4396ZM8.56815 16.9666C7.53809 18.853 6.98138 21.0638 6.96597 23.3291H1.74149C1.74149 22.7777 2.0271 21.1446 3.06503 19.6728C4.01414 18.3239 5.66334 17.009 8.56815 16.9687V16.9666ZM2.61224 7.4229C2.61224 5.73546 3.16267 4.11714 4.14245 2.92394C5.12223 1.73074 6.4511 1.06041 7.83672 1.06041C9.22234 1.06041 10.5512 1.73074 11.531 2.92394C12.5108 4.11714 13.0612 5.73546 13.0612 7.4229C13.0612 9.11033 12.5108 10.7287 11.531 11.9219C10.5512 13.115 9.22234 13.7854 7.83672 13.7854C6.4511 13.7854 5.12223 13.115 4.14245 11.9219C3.16267 10.7287 2.61224 9.11033 2.61224 7.4229ZM7.83672 3.18124C6.91297 3.18124 6.02706 3.62813 5.37388 4.42359C4.72069 5.21906 4.35373 6.29794 4.35373 7.4229C4.35373 8.54785 4.72069 9.62673 5.37388 10.4222C6.02706 11.2177 6.91297 11.6646 7.83672 11.6646C8.76046 11.6646 9.64637 11.2177 10.2996 10.4222C10.9527 9.62673 11.3197 8.54785 11.3197 7.4229C11.3197 6.29794 10.9527 5.21906 10.2996 4.42359C9.64637 3.62813 8.76046 3.18124 7.83672 3.18124Z" fill="#021926"/>
</svg>
