<svg width="18" height="29" viewBox="0 0 18 29" fill="none" xmlns="http://www.w3.org/2000/svg">
<path d="M2.0628 0.264626C2.14653 0.180523 2.24591 0.113863 2.35524 0.0684567C2.46458 0.0230505 2.58173 -0.000211246 2.7 1.44546e-06H15.3C15.5387 1.44546e-06 15.7676 0.0954811 15.9364 0.265436C16.1052 0.435391 16.2 0.665899 16.2 0.906251C16.2 2.13875 15.5844 3.03413 15.0372 3.58694C14.8104 3.8135 14.5872 3.99294 14.4 4.12706V12.1583L14.5404 12.2453C14.9058 12.4754 15.3972 12.8144 15.8922 13.2512C16.848 14.0922 18 15.4552 18 17.2188C18 17.4591 17.9052 17.6896 17.7364 17.8596C17.5676 18.0295 17.3387 18.125 17.1 18.125H9.9V26.2813C9.9 26.7815 9.4968 29 9 29C8.5032 29 8.1 26.7815 8.1 26.2813V18.125H0.9C0.661305 18.125 0.432387 18.0295 0.263604 17.8596C0.0948213 17.6896 0 17.4591 0 17.2188C0 15.4552 1.152 14.0922 2.106 13.2512C2.5721 12.8446 3.07193 12.4789 3.6 12.1583V4.12706C3.37411 3.96381 3.16107 3.78323 2.9628 3.58694C2.4156 3.03413 1.8 2.13694 1.8 0.906251C1.79979 0.787161 1.82289 0.669197 1.86798 0.559102C1.91308 0.449008 1.97928 0.348942 2.0628 0.264626ZM4.9032 2.81481L4.9068 2.81663C5.05516 2.89232 5.17979 3.00794 5.26685 3.15063C5.35391 3.29333 5.4 3.45753 5.4 3.625V12.6875C5.39999 12.8557 5.35352 13.0205 5.26579 13.1636C5.17805 13.3067 5.0525 13.4224 4.9032 13.4977H4.8996L4.878 13.5104L4.7808 13.5648C4.25063 13.8637 3.75189 14.2159 3.2922 14.616C2.7198 15.1199 2.2392 15.6963 1.9872 16.3125H16.0128C15.7608 15.6963 15.2802 15.1199 14.7078 14.616C14.2201 14.1913 13.6884 13.8207 13.122 13.5104L13.1004 13.4995H13.0968C12.9472 13.424 12.8215 13.3081 12.7337 13.1646C12.646 13.0212 12.5997 12.856 12.6 12.6875V3.625C12.5993 3.44975 12.6491 3.27806 12.7434 3.13072C12.8376 2.98339 12.9723 2.86673 13.131 2.79488C13.3609 2.65799 13.5731 2.49301 13.7628 2.30369C13.9068 2.15869 14.0418 1.99556 14.148 1.8125H3.852C3.9612 1.99375 4.0896 2.15748 4.2372 2.30369C4.43631 2.50236 4.66018 2.67417 4.9032 2.81481Z" fill="black"/>
</svg>
